<svg width="1728" height="1117" viewBox="0 0 1728 1117" fill="none" xmlns="http://www.w3.org/2000/svg">
<rect width="1728" height="1117" fill="black"/>
<g clip-path="url(#clip0_242_53)">
<rect x="24" y="24" width="1680" height="1055" rx="42" fill="black"/>
<g filter="url(#filter0_f_242_53)">
<path d="M319.937 329.384L1475.02 178.068L1315.04 123.78L1251.51 138.218L319.937 329.384Z" fill="#58D9FB"/>
<path d="M319.937 329.384L1475.02 178.068L1315.04 123.78L1251.51 138.218L319.937 329.384Z" fill="#58D9FB"/>
<path d="M319.937 329.384L1475.02 178.068L1315.04 123.78L1251.51 138.218L319.937 329.384Z" fill="#58D9FB"/>
<path d="M319.937 329.384L1475.02 178.068L1315.04 123.78L1251.51 138.218L319.937 329.384Z" fill="#58D9FB"/>
</g>
<g opacity="0.9">
<g filter="url(#filter1_f_242_53)">
<circle cx="1187.86" cy="110.571" r="478.543" transform="rotate(-60 1187.86 110.571)" fill="url(#paint0_radial_242_53)"/>
</g>
<g filter="url(#filter2_f_242_53)">
<circle cx="1000.14" cy="89.6288" r="478.543" transform="rotate(-60 1000.14 89.6288)" fill="url(#paint1_radial_242_53)"/>
</g>
</g>
<g filter="url(#filter3_f_242_53)">
<path d="M376.536 872.274L1100.77 108.186L1538.55 -151.708L276.621 66.603L296.835 829.535L376.536 872.274Z" fill="black"/>
<path d="M376.536 872.274L1100.77 108.186L1538.55 -151.708L276.621 66.603L296.835 829.535L376.536 872.274Z" fill="black"/>
<path d="M376.536 872.274L1100.77 108.186L1538.55 -151.708L276.621 66.603L296.835 829.535L376.536 872.274Z" fill="black"/>
<path d="M376.536 872.274L1100.77 108.186L1538.55 -151.708L276.621 66.603L296.835 829.535L376.536 872.274Z" fill="black"/>
</g>
<g filter="url(#filter4_f_242_53)">
<path d="M588.493 882.092L1749.35 128.977L2067 -391.965L1526.42 -9.05497L588.493 882.092Z" fill="black"/>
<path d="M588.493 882.092L1749.35 128.977L2067 -391.965L1526.42 -9.05497L588.493 882.092Z" fill="black"/>
<path d="M588.493 882.092L1749.35 128.977L2067 -391.965L1526.42 -9.05497L588.493 882.092Z" fill="black"/>
<path d="M588.493 882.092L1749.35 128.977L2067 -391.965L1526.42 -9.05497L588.493 882.092Z" fill="black"/>
</g>
<g opacity="0.6" filter="url(#filter5_f_242_53)">
<ellipse cx="604.494" cy="1211.12" rx="553.285" ry="139.092" transform="rotate(135 604.494 1211.12)" fill="url(#paint2_radial_242_53)"/>
</g>
</g>
<rect x="24.5" y="24.5" width="1679" height="1054" rx="41.5" stroke="#252525"/>
<defs>
<filter id="filter0_f_242_53" x="265.937" y="69.7795" width="1263.08" height="313.605" filterUnits="userSpaceOnUse" color-interpolation-filters="sRGB">
<feFlood flood-opacity="0" result="BackgroundImageFix"/>
<feBlend mode="normal" in="SourceGraphic" in2="BackgroundImageFix" result="shape"/>
<feGaussianBlur stdDeviation="27" result="effect1_foregroundBlur_242_53"/>
</filter>
<filter id="filter1_f_242_53" x="305.238" y="-772.051" width="1765.25" height="1765.25" filterUnits="userSpaceOnUse" color-interpolation-filters="sRGB">
<feFlood flood-opacity="0" result="BackgroundImageFix"/>
<feBlend mode="normal" in="SourceGraphic" in2="BackgroundImageFix" result="shape"/>
<feGaussianBlur stdDeviation="202" result="effect1_foregroundBlur_242_53"/>
</filter>
<filter id="filter2_f_242_53" x="117.515" y="-792.994" width="1765.25" height="1765.25" filterUnits="userSpaceOnUse" color-interpolation-filters="sRGB">
<feFlood flood-opacity="0" result="BackgroundImageFix"/>
<feBlend mode="normal" in="SourceGraphic" in2="BackgroundImageFix" result="shape"/>
<feGaussianBlur stdDeviation="202" result="effect1_foregroundBlur_242_53"/>
</filter>
<filter id="filter3_f_242_53" x="222.621" y="-205.708" width="1369.93" height="1131.98" filterUnits="userSpaceOnUse" color-interpolation-filters="sRGB">
<feFlood flood-opacity="0" result="BackgroundImageFix"/>
<feBlend mode="normal" in="SourceGraphic" in2="BackgroundImageFix" result="shape"/>
<feGaussianBlur stdDeviation="27" result="effect1_foregroundBlur_242_53"/>
</filter>
<filter id="filter4_f_242_53" x="534.493" y="-445.965" width="1586.51" height="1382.06" filterUnits="userSpaceOnUse" color-interpolation-filters="sRGB">
<feFlood flood-opacity="0" result="BackgroundImageFix"/>
<feBlend mode="normal" in="SourceGraphic" in2="BackgroundImageFix" result="shape"/>
<feGaussianBlur stdDeviation="27" result="effect1_foregroundBlur_242_53"/>
</filter>
<filter id="filter5_f_242_53" x="51.9932" y="658.62" width="1105" height="1105" filterUnits="userSpaceOnUse" color-interpolation-filters="sRGB">
<feFlood flood-opacity="0" result="BackgroundImageFix"/>
<feBlend mode="normal" in="SourceGraphic" in2="BackgroundImageFix" result="shape"/>
<feGaussianBlur stdDeviation="74.5" result="effect1_foregroundBlur_242_53"/>
</filter>
<radialGradient id="paint0_radial_242_53" cx="0" cy="0" r="1" gradientUnits="userSpaceOnUse" gradientTransform="translate(548.615 518.002) rotate(17.5649) scale(1687.67 1870.64)">
<stop offset="0.0185092" stop-color="#6DEBC8"/>
<stop offset="0.284139" stop-color="#64DECB" stop-opacity="0.982297"/>
<stop offset="0.637303" stop-color="#2281DD" stop-opacity="0.86"/>
<stop offset="1" stop-color="#020C1B"/>
</radialGradient>
<radialGradient id="paint1_radial_242_53" cx="0" cy="0" r="1" gradientUnits="userSpaceOnUse" gradientTransform="translate(754.473 -304.737) rotate(46.924) scale(1153.99 1279.09)">
<stop stop-color="#C42FE9"/>
<stop offset="0.229189" stop-color="#6DA7EB"/>
<stop offset="0.48961" stop-color="#2281DD"/>
<stop offset="0.799846" stop-color="#020C1B"/>
</radialGradient>
<radialGradient id="paint2_radial_242_53" cx="0" cy="0" r="1" gradientUnits="userSpaceOnUse" gradientTransform="translate(320.46 1096.49) rotate(15.0493) scale(943.593 525.688)">
<stop stop-color="#E9E82F"/>
<stop offset="0.229189" stop-color="#6DEBC8"/>
<stop offset="0.61227" stop-color="#2281DD"/>
<stop offset="0.799846" stop-color="#020C1B"/>
</radialGradient>
<clipPath id="clip0_242_53">
<rect x="24" y="24" width="1680" height="1055" rx="42" fill="white"/>
</clipPath>
</defs>
</svg>
