<svg width="73" height="72" viewBox="0 0 73 72" fill="none" xmlns="http://www.w3.org/2000/svg">
    <rect x="0.933496" y="0.6" width="70.8" height="70.8" rx="35.4" fill="#5CA9FC" fill-opacity="0.1"/>
    <rect x="0.933496" y="0.6" width="70.8" height="70.8" rx="35.4" stroke="url(#paint0_linear_429_244)" stroke-width="1.2"/>
    <rect x="11.3335" y="11" width="50" height="50" rx="25" fill="white"/>
    <path d="M37.8495 34.064C39.0655 34.352 40.0495 34.92 40.8015 35.768C41.5695 36.6 41.9535 37.648 41.9535 38.912C41.9535 40.592 41.3855 41.912 40.2495 42.872C39.1135 43.832 37.7215 44.312 36.0735 44.312C34.7935 44.312 33.6415 44.016 32.6175 43.424C31.6095 42.832 30.8815 41.968 30.4335 40.832L32.7855 39.464C33.2815 40.904 34.3775 41.624 36.0735 41.624C37.0335 41.624 37.7935 41.384 38.3535 40.904C38.9135 40.408 39.1935 39.744 39.1935 38.912C39.1935 38.08 38.9135 37.424 38.3535 36.944C37.7935 36.464 37.0335 36.224 36.0735 36.224H35.4495L34.3455 34.568L37.9695 29.792H30.9375V27.2H41.2575V29.552L37.8495 34.064Z" fill="#3E6CF4"/>
    <defs>
        <linearGradient id="paint0_linear_429_244" x1="0.333496" y1="0" x2="72.3335" y2="72" gradientUnits="userSpaceOnUse">
            <stop stop-color="#5CA9FC" stop-opacity="0.5"/>
            <stop offset="1" stop-color="#5CA9FC" stop-opacity="0.1"/>
        </linearGradient>
    </defs>
</svg>
