<svg width="72" height="72" viewBox="0 0 72 72" fill="none" xmlns="http://www.w3.org/2000/svg">
    <rect x="0.6" y="0.6" width="70.8" height="70.8" rx="35.4" fill="#5CA9FC" fill-opacity="0.1"/>
    <rect x="0.6" y="0.6" width="70.8" height="70.8" rx="35.4" stroke="url(#paint0_linear_83_26)" stroke-width="1.2"/>
    <path d="M42.5826 41.3635H49.8708L36.9156 18.6918C36.5407 18.0347 35.4593 18.0347 35.0844 18.6918L32.3555 23.4674L42.5826 41.3635Z" fill="#3A99FF"/>
    <path d="M40.1533 41.3635L36 34.0958L31.8468 41.3635H40.1533Z" fill="#3A99FF"/>
    <path d="M51.0762 43.4728H30.6413L27.0251 49.801H52.9453C53.3212 49.801 53.6683 49.6011 53.8579 49.2757C54.0464 48.9502 54.0474 48.5495 53.861 48.223L51.0762 43.4728Z" fill="#3A99FF"/>
    <path d="M34.7852 31.9703L31.1408 25.593L18.139 48.2231C17.9526 48.5496 17.9536 48.9503 18.1421 49.2757C18.3316 49.6012 18.6788 49.801 19.0547 49.801H24.5958L34.7852 31.9703Z" fill="#3A99FF"/>
    <defs>
        <linearGradient id="paint0_linear_83_26" x1="0" y1="0" x2="72" y2="72" gradientUnits="userSpaceOnUse">
            <stop stopColor="#5CA9FC" stopOpacity="0.5"/>
            <stop offset="1" stopColor="#5CA9FC" stopOpacity="0.1"/>
        </linearGradient>
    </defs>
</svg>
