<svg width="72" height="72" viewBox="0 0 72 72" fill="none" xmlns="http://www.w3.org/2000/svg">
    <rect x="0.6" y="0.6" width="70.8" height="70.8" rx="35.4" fill="#5CA9FC" fill-opacity="0.1"/>
    <rect x="0.6" y="0.6" width="70.8" height="70.8" rx="35.4" stroke="url(#paint0_linear_83_33)" stroke-width="1.2"/>
    <path d="M23.2811 41.2833L27.0726 37.4918L39.7864 50.2057L35.995 53.9971L23.2811 41.2833Z" fill="#3A99FF"/>
    <path d="M37.4881 44.9236L50.2019 32.2097L53.9934 36.0011L41.2795 48.715L37.4881 44.9236Z" fill="#3A99FF"/>
    <path d="M28.5656 35.9999L35.9962 28.5694L43.4267 35.9999L35.9962 43.4305L28.5656 35.9999Z" fill="#3A99FF"/>
    <path d="M17.999 35.9987L30.7129 23.2848L34.5044 27.0763L21.7905 39.7902L17.999 35.9987Z" fill="#3A99FF"/>
    <path d="M32.206 21.7941L35.9975 18.0027L48.7114 30.7166L44.9199 34.508L32.206 21.7941Z" fill="#3A99FF"/>
    <defs>
        <linearGradient id="paint0_linear_83_33" x1="0" y1="0" x2="72" y2="72" gradientUnits="userSpaceOnUse">
            <stop stop-color="#5CA9FC" stop-opacity="0.5"/>
            <stop offset="1" stop-color="#5CA9FC" stop-opacity="0.1"/>
        </linearGradient>
    </defs>
</svg>
