<svg width="72" height="72" viewBox="0 0 72 72" fill="none" xmlns="http://www.w3.org/2000/svg">
    <rect x="0.6" y="0.6" width="70.8" height="70.8" rx="35.4" fill="#5CA9FC" fill-opacity="0.1"/>
    <rect x="0.6" y="0.6" width="70.8" height="70.8" rx="35.4" stroke="url(#paint0_linear_83_40)" stroke-width="1.2"/>
    <path d="M21.305 38.51C21.269 38.4228 21.2504 38.3294 21.25 38.235V22C21.2499 21.9015 21.2692 21.8039 21.3068 21.7128C21.3445 21.6218 21.3997 21.539 21.4694 21.4694C21.539 21.3997 21.6218 21.3445 21.7128 21.3068C21.8039 21.2692 21.9015 21.2499 22 21.25H27.885C28.0838 21.2506 28.2743 21.3296 28.415 21.47L33.59 26.645C33.6597 26.7145 33.7151 26.7971 33.7528 26.8881C33.7906 26.979 33.81 27.0765 33.81 27.175C33.81 27.2735 33.7906 27.371 33.7528 27.4619C33.7151 27.5529 33.6597 27.6355 33.59 27.705L22.53 38.765C22.4416 38.8515 22.3333 38.915 22.2147 38.9497C22.096 38.9845 21.9706 38.9894 21.8495 38.9642C21.7284 38.939 21.6154 38.8844 21.5205 38.8052C21.4255 38.726 21.3515 38.6246 21.305 38.51Z" fill="#3A99FF"/>
    <path d="M50.75 22V27.885C50.7471 27.9823 50.7286 28.0786 50.695 28.17C50.6554 28.2611 50.5995 28.3441 50.53 28.415L45.355 33.59C45.2139 33.7296 45.0235 33.8079 44.825 33.8079C44.6265 33.8079 44.4361 33.7296 44.295 33.59L33.235 22.53C33.1493 22.4418 33.0862 22.3341 33.0514 22.2162C33.0166 22.0983 33.011 21.9736 33.0351 21.853C33.0593 21.7324 33.1124 21.6195 33.1899 21.524C33.2674 21.4286 33.367 21.3534 33.4801 21.305C33.5714 21.2713 33.6677 21.2527 33.7651 21.25H50C50.0985 21.2499 50.1961 21.2692 50.2872 21.3068C50.3782 21.3445 50.461 21.3997 50.5306 21.4694C50.6003 21.539 50.6555 21.6218 50.6932 21.7128C50.7308 21.8039 50.7501 21.9015 50.75 22Z" fill="#3A99FF"/>
    <path d="M50.695 33.49C50.731 33.5772 50.7496 33.6706 50.75 33.765V50C50.7501 50.0985 50.7308 50.1961 50.6932 50.2872C50.6555 50.3782 50.6003 50.461 50.5306 50.5306C50.461 50.6003 50.3782 50.6555 50.2872 50.6932C50.1961 50.7308 50.0985 50.7501 50 50.75H44.115C43.9162 50.7494 43.7257 50.6703 43.585 50.53L38.41 45.355C38.3403 45.2855 38.2849 45.2029 38.2472 45.1119C38.2094 45.021 38.19 44.9235 38.19 44.825C38.19 44.7265 38.2094 44.629 38.2472 44.5381C38.2849 44.4471 38.3403 44.3645 38.41 44.295L49.47 33.235C49.5584 33.1485 49.6667 33.0851 49.7853 33.0503C49.904 33.0156 50.0294 33.0106 50.1505 33.0358C50.2716 33.061 50.3846 33.1156 50.4795 33.1948C50.5745 33.274 50.6485 33.3754 50.695 33.49Z" fill="#3A99FF"/>
    <path d="M29.585 35.47L35.47 29.585C35.6112 29.4456 35.8016 29.3675 36 29.3675C36.1984 29.3675 36.3888 29.4456 36.53 29.585L42.415 35.47C42.5544 35.6112 42.6325 35.8016 42.6325 36C42.6325 36.1984 42.5544 36.3888 42.415 36.53L36.53 42.415C36.3882 42.5532 36.198 42.6305 36 42.6305C35.802 42.6305 35.6118 42.5532 35.47 42.415L29.585 36.53C29.4456 36.3888 29.3675 36.1984 29.3675 36C29.3675 35.8016 29.4456 35.6112 29.585 35.47Z" fill="#3A99FF"/>
    <path d="M38.93 49.725C38.9739 49.8385 38.9897 49.961 38.9759 50.082C38.9621 50.2029 38.9192 50.3187 38.8509 50.4195C38.7826 50.5202 38.6909 50.6029 38.5836 50.6605C38.4763 50.7181 38.3567 50.7488 38.235 50.75H22C21.9015 50.7501 21.8039 50.7308 21.7128 50.6932C21.6218 50.6555 21.539 50.6003 21.4694 50.5306C21.3997 50.461 21.3445 50.3782 21.3068 50.2872C21.2692 50.1961 21.2499 50.0985 21.25 50V44.115C21.2529 44.0177 21.2715 43.9214 21.305 43.83C21.3446 43.7389 21.4005 43.6559 21.47 43.585L26.645 38.41C26.7885 38.2751 26.978 38.2 27.175 38.2C27.372 38.2 27.5615 38.2751 27.705 38.41L38.765 49.47C38.8395 49.5406 38.8961 49.6281 38.93 49.725Z" fill="#3A99FF"/>
    <defs>
        <linearGradient id="paint0_linear_83_40" x1="0" y1="0" x2="72" y2="72" gradientUnits="userSpaceOnUse">
            <stop stop-color="#5CA9FC" stop-opacity="0.5"/>
            <stop offset="1" stop-color="#5CA9FC" stop-opacity="0.1"/>
        </linearGradient>
    </defs>
</svg>
