<svg width="258" height="49" viewBox="0 0 258 49" fill="none" xmlns="http://www.w3.org/2000/svg">
    <path d="M26.347 0.5L0 48.5H52.7697L26.347 0.5Z" fill="url(#paint0_angular_83_6)"/>
    <path d="M72.4655 35.916C70.3109 35.916 68.4762 35.4253 66.9615 34.444C65.4682 33.4627 64.4229 32.1187 63.8255 30.412L66.9935 28.556C67.8895 31.0733 69.7455 32.332 72.5615 32.332C73.9482 32.332 74.9829 32.0653 75.6655 31.532C76.3695 30.9773 76.7215 30.2627 76.7215 29.388C76.7215 28.4707 76.3482 27.7773 75.6015 27.308C74.8549 26.8173 73.5322 26.284 71.6335 25.708C70.5669 25.388 69.7029 25.0893 69.0415 24.812C68.3802 24.5347 67.6762 24.1507 66.9295 23.66C66.2042 23.148 65.6602 22.5187 65.2975 21.772C64.9349 21.0253 64.7535 20.1507 64.7535 19.148C64.7535 17.164 65.4575 15.596 66.8655 14.444C68.2735 13.2707 69.9695 12.684 71.9535 12.684C73.7455 12.684 75.3135 13.1213 76.6575 13.996C78.0015 14.8707 79.0362 16.076 79.7615 17.612L76.6575 19.404C75.7189 17.3133 74.1509 16.268 71.9535 16.268C70.8869 16.268 70.0335 16.524 69.3935 17.036C68.7535 17.5267 68.4335 18.1987 68.4335 19.052C68.4335 19.884 68.7535 20.5453 69.3935 21.036C70.0549 21.5053 71.2389 22.0067 72.9455 22.54C73.7989 22.8173 74.4175 23.0307 74.8015 23.18C75.2069 23.308 75.7615 23.5213 76.4655 23.82C77.1909 24.1187 77.7349 24.4173 78.0975 24.716C78.4602 25.0147 78.8442 25.388 79.2495 25.836C79.6762 26.284 79.9749 26.796 80.1455 27.372C80.3162 27.948 80.4015 28.5987 80.4015 29.324C80.4015 31.3507 79.6655 32.9613 78.1935 34.156C76.7429 35.3293 74.8335 35.916 72.4655 35.916ZM92.8833 19.5H96.3393V35.5H92.8833V33.452C91.8379 35.0947 90.1846 35.916 87.9233 35.916C86.0886 35.916 84.6059 35.3293 83.4753 34.156C82.3446 32.9827 81.7793 31.372 81.7793 29.324V19.5H85.2353V28.972C85.2353 30.1667 85.5553 31.084 86.1953 31.724C86.8353 32.364 87.7099 32.684 88.8193 32.684C90.0353 32.684 91.0166 32.3107 91.7633 31.564C92.5099 30.796 92.8833 29.6333 92.8833 28.076V19.5ZM108.157 19.084C110.354 19.084 112.231 19.9053 113.789 21.548C115.346 23.1693 116.125 25.1533 116.125 27.5C116.125 29.868 115.346 31.8627 113.789 33.484C112.231 35.1053 110.354 35.916 108.157 35.916C105.725 35.916 103.858 35.02 102.557 33.228V41.9H99.1005V19.5H102.557V21.804C103.858 19.9907 105.725 19.084 108.157 19.084ZM103.997 31.18C104.957 32.14 106.162 32.62 107.613 32.62C109.063 32.62 110.269 32.14 111.229 31.18C112.189 30.1987 112.669 28.972 112.669 27.5C112.669 26.028 112.189 24.812 111.229 23.852C110.269 22.8707 109.063 22.38 107.613 22.38C106.162 22.38 104.957 22.8707 103.997 23.852C103.037 24.812 102.557 26.028 102.557 27.5C102.557 28.972 103.037 30.1987 103.997 31.18ZM121.433 22.188C122.307 20.204 123.95 19.212 126.361 19.212V22.956C125.038 22.8707 123.886 23.1907 122.905 23.916C121.923 24.62 121.433 25.7933 121.433 27.436V35.5H117.977V19.5H121.433V22.188ZM129.604 28.972C129.86 30.188 130.447 31.1267 131.364 31.788C132.282 32.428 133.402 32.748 134.724 32.748C136.559 32.748 137.935 32.0867 138.852 30.764L141.7 32.428C140.122 34.7533 137.786 35.916 134.692 35.916C132.09 35.916 129.988 35.1267 128.388 33.548C126.788 31.948 125.988 29.932 125.988 27.5C125.988 25.1107 126.778 23.116 128.356 21.516C129.935 19.8947 131.962 19.084 134.436 19.084C136.783 19.084 138.703 19.9053 140.196 21.548C141.711 23.1907 142.468 25.1853 142.468 27.532C142.468 27.8947 142.426 28.3747 142.34 28.972H129.604ZM129.572 26.156H138.98C138.746 24.8547 138.202 23.8733 137.348 23.212C136.516 22.5507 135.535 22.22 134.404 22.22C133.124 22.22 132.058 22.572 131.204 23.276C130.351 23.98 129.807 24.94 129.572 26.156ZM161.701 19.084C163.515 19.084 164.976 19.6707 166.085 20.844C167.195 22.0173 167.749 23.596 167.749 25.58V35.5H164.293V25.804C164.293 24.6947 164.016 23.8413 163.461 23.244C162.907 22.6253 162.149 22.316 161.189 22.316C160.123 22.316 159.269 22.668 158.629 23.372C158.011 24.076 157.701 25.132 157.701 26.54V35.5H154.245V25.804C154.245 24.6947 153.979 23.8413 153.445 23.244C152.933 22.6253 152.197 22.316 151.237 22.316C150.192 22.316 149.339 22.6787 148.677 23.404C148.016 24.108 147.685 25.1533 147.685 26.54V35.5H144.229V19.5H147.685V21.42C148.709 19.8627 150.235 19.084 152.261 19.084C154.309 19.084 155.824 19.9267 156.805 21.612C157.872 19.9267 159.504 19.084 161.701 19.084ZM172.888 28.972C173.144 30.188 173.731 31.1267 174.648 31.788C175.565 32.428 176.685 32.748 178.008 32.748C179.843 32.748 181.219 32.0867 182.136 30.764L184.984 32.428C183.405 34.7533 181.069 35.916 177.976 35.916C175.373 35.916 173.272 35.1267 171.672 33.548C170.072 31.948 169.272 29.932 169.272 27.5C169.272 25.1107 170.061 23.116 171.64 21.516C173.219 19.8947 175.245 19.084 177.72 19.084C180.067 19.084 181.987 19.9053 183.48 21.548C184.995 23.1907 185.752 25.1853 185.752 27.532C185.752 27.8947 185.709 28.3747 185.624 28.972H172.888ZM172.856 26.156H182.264C182.029 24.8547 181.485 23.8733 180.632 23.212C179.8 22.5507 178.819 22.22 177.688 22.22C176.408 22.22 175.341 22.572 174.488 23.276C173.635 23.98 173.091 24.94 172.856 26.156ZM203.257 13.1C206.329 13.1 208.878 14.1773 210.905 16.332C212.953 18.4867 213.977 21.1427 213.977 24.3C213.977 27.436 212.953 30.092 210.905 32.268C208.878 34.4227 206.329 35.5 203.257 35.5H194.457V13.1H203.257ZM203.257 31.98C205.369 31.98 207.086 31.2547 208.409 29.804C209.753 28.3533 210.425 26.5187 210.425 24.3C210.425 22.06 209.753 20.2253 208.409 18.796C207.086 17.3453 205.369 16.62 203.257 16.62H198.137V31.98H203.257ZM229.8 35.5L228.232 30.988H218.696L217.128 35.5H213.128L221.256 13.1H225.672L233.768 35.5H229.8ZM219.912 27.532H227.016L223.464 17.42L219.912 27.532ZM252.773 32.556C250.533 34.796 247.792 35.916 244.549 35.916C241.307 35.916 238.555 34.796 236.293 32.556C234.053 30.2947 232.933 27.5427 232.933 24.3C232.933 21.0573 234.053 18.316 236.293 16.076C238.555 13.8147 241.307 12.684 244.549 12.684C247.792 12.684 250.533 13.8147 252.773 16.076C255.035 18.316 256.165 21.0573 256.165 24.3C256.165 27.5427 255.035 30.2947 252.773 32.556ZM238.885 30.06C240.421 31.5747 242.309 32.332 244.549 32.332C246.789 32.332 248.667 31.5747 250.181 30.06C251.717 28.524 252.485 26.604 252.485 24.3C252.485 21.996 251.717 20.0867 250.181 18.572C248.667 17.036 246.789 16.268 244.549 16.268C242.309 16.268 240.421 17.036 238.885 18.572C237.371 20.0867 236.613 21.996 236.613 24.3C236.613 26.604 237.371 28.524 238.885 30.06Z" fill="black"/>
    <defs>
        <radialGradient id="paint0_angular_83_6" cx="0" cy="0" r="1" gradientUnits="userSpaceOnUse" gradientTransform="translate(26.347 29.1183) rotate(180) scale(23.2429 20.9978)">
            <stop stop-color="#3C69F4"/>
            <stop offset="1" stop-color="#3963F3" stop-opacity="0"/>
        </radialGradient>
    </defs>
</svg>
